<?xml version="1.0" encoding="utf-8"?>
<!-- Generator: Adobe Illustrator 26.0.1, SVG Export Plug-In . SVG Version: 6.00 Build 0)  -->
<!DOCTYPE svg PUBLIC "-//W3C//DTD SVG 1.1//EN" "http://www.w3.org/Graphics/SVG/1.1/DTD/svg11.dtd" [
	<!ENTITY ns_extend "http://ns.adobe.com/Extensibility/1.0/">
	<!ENTITY ns_ai "http://ns.adobe.com/AdobeIllustrator/10.0/">
	<!ENTITY ns_graphs "http://ns.adobe.com/Graphs/1.0/">
	<!ENTITY ns_vars "http://ns.adobe.com/Variables/1.0/">
	<!ENTITY ns_imrep "http://ns.adobe.com/ImageReplacement/1.0/">
	<!ENTITY ns_sfw "http://ns.adobe.com/SaveForWeb/1.0/">
	<!ENTITY ns_custom "http://ns.adobe.com/GenericCustomNamespace/1.0/">
	<!ENTITY ns_adobe_xpath "http://ns.adobe.com/XPath/1.0/">
]>
<svg version="1.1" id="圖層_1" xmlns:x="&ns_extend;" xmlns:i="&ns_ai;" xmlns:graph="&ns_graphs;"
	 xmlns="http://www.w3.org/2000/svg" xmlns:xlink="http://www.w3.org/1999/xlink" x="0px" y="0px" width="406.9px" height="62.1px"
	 viewBox="0 0 406.9 62.1" style="enable-background:new 0 0 406.9 62.1;" xml:space="preserve">
<style type="text/css">
	.st0{fill:#996600;}
	.st1{fill:#003366;}
</style>
<metadata>
	<sfw  xmlns="&ns_sfw;">
		<slices></slices>
		<sliceSourceBounds  bottomLeftOrigin="true" height="62.1" width="406.9" x="235.1" y="-298.6"></sliceSourceBounds>
	</sfw>
</metadata>
<g>
	<g>
		<g>
			<path class="st0" d="M31.1,62.1L23.9,50c0,0-0.2-0.3-0.2-0.7l0-0.3v-0.6V26.8h-2.7v22.5V50c0.2,0.2,4.8,8,4.8,8H14.4
				c0,0,4.6-7.8,4.8-8v-0.7V26.8h-2.7v21.5V49l0,0.3c0,0.5-0.2,0.7-0.2,0.7L8.9,62.1H31.1z"/>
		</g>
		<g>
			<path class="st0" d="M28.9,11.1c0,0,1.4-5.7-3.5-9.4c0,0-2-1.8-5.7-1.8c-3.3,0-5.3,1.8-5.3,1.8c-4.5,3.1-3.3,9.4-3.3,9.4H28.9z"
				/>
			<path class="st0" d="M11.7,12.7h16.7c0.1-0.3,0.2-0.6,0.3-1H11.3C11.4,12,11.5,12.4,11.7,12.7z"/>
			<path class="st0" d="M28.1,13.3H11.9c0.2,0.3,0.4,0.7,0.6,1h15C27.7,13.9,27.9,13.6,28.1,13.3z"/>
			<path class="st0" d="M13.6,15.6h12.9c0.2-0.2,0.5-0.5,0.7-0.8H12.9C13.1,15.1,13.3,15.4,13.6,15.6z"/>
			<path class="st0" d="M15,16.8h10.1c0.3-0.2,0.5-0.4,0.8-0.6H14.2C14.5,16.4,14.7,16.6,15,16.8z"/>
			<path class="st0" d="M16.4,17.6c1.1,0.5,2.3,0.8,3.6,0.8c1.3,0,2.5-0.3,3.6-0.8H16.4z"/>
		</g>
		<path class="st1" d="M37.3,18.8H23.7c0,0-1.3,0-2.3,0.7c-0.8,0.5-1.3,1.8-1.4,1.8h0c0-0.1-0.6-1.3-1.4-1.8c-1-0.7-2.3-0.7-2.3-0.7
			H2.7L0,23.1h12.5c0,0,0.4,0,0.6,0c0.4,0.1,1,0.3,1.7,0.7c0.9,0.7,1.2,1,1.4,1.2c0.1,0.1,0.4,0.5,0.4,0.5h3.1H20h0h1.1h2.4
			c0,0,0.3-0.4,0.4-0.5c0.2-0.2,0.5-0.6,1.4-1.2c0.7-0.5,1.3-0.7,1.7-0.7c0.2,0,0.6,0,0.6,0H40L37.3,18.8z"/>
		<g>
			<g>
				<path class="st1" d="M1.4,24.5v20.5c0,0,0,0.2,0,0.3c0,0.2,0,0.4,0,0.6c0.2,2.2,0.9,3.8,2.2,5.9c2,3.3,5.6,5.7,5.6,5.7l1.7-2.7
					c0,0-2.3-1.2-4.2-4.1c-0.4-0.6-0.7-1.1-1-1.6c-0.2-0.5-0.4-0.9-0.6-1.3c-0.1-0.3-0.2-0.6-0.3-0.9c-0.1-0.4-0.1-0.7-0.2-1
					c0-0.1,0-0.6,0-0.6v-0.1V24.5H1.4z"/>
				<path class="st1" d="M6.6,24.5v20.7c0,0,0,0.1,0,0.2c0,0.1,0,0.3,0,0.4c0,0.1,0,0.2,0,0.2c0.1,0.3,0.1,0.6,0.3,1
					c0.2,0.7,0.6,1.5,1.2,2.5c1.5,2.5,3.7,3.6,3.7,3.6l1.7-2.7c0,0-0.6-0.3-1.3-1c-0.5-0.4-1-1-1.5-1.7c-0.5-0.7-0.7-1.4-0.9-2
					c-0.1-0.4-0.2-0.8-0.2-1c0-0.2,0-0.3,0-0.3v-20H6.6z"/>
			</g>
			<g>
				<path class="st1" d="M38.7,24.5v20.5c0,0,0,0.2,0,0.3c0,0.2,0,0.4,0,0.6c-0.2,2.2-0.9,3.8-2.2,5.9c-2,3.3-5.6,5.7-5.6,5.7
					l-1.7-2.7c0,0,2.3-1.2,4.2-4.1c0.4-0.6,0.7-1.1,1-1.6c0.2-0.5,0.4-0.9,0.6-1.3c0.1-0.3,0.2-0.6,0.3-0.9c0.1-0.4,0.1-0.7,0.2-1
					c0-0.1,0-0.6,0-0.6v-0.1V24.5H38.7z"/>
				<path class="st1" d="M33.5,24.5v20.7c0,0,0,0.1,0,0.2c0,0.1,0,0.3,0,0.4c0,0.1,0,0.2,0,0.2c-0.1,0.3-0.1,0.6-0.3,1
					c-0.2,0.7-0.6,1.5-1.2,2.5c-1.5,2.5-3.7,3.6-3.7,3.6l-1.7-2.7c0,0,0.6-0.3,1.3-1c0.5-0.4,1-1,1.5-1.7c0.5-0.7,0.7-1.4,0.9-2
					c0.1-0.4,0.2-0.8,0.2-1c0-0.2,0-0.3,0-0.3v-20H33.5z"/>
			</g>
		</g>
	</g>
	<g>
		<g>
			<path class="st1" d="M50.9,57.5l-1.6,3.4h-1.8L54,46.7l6.5,14.2h-1.8l-1.6-3.4H50.9z M54,50.4l-2.4,5.5h4.8L54,50.4z"/>
			<path class="st1" d="M61.7,46.6l10.2,10.7V47.2h1.7v14.2L63.4,50.7v10.2h-1.7V46.6z"/>
			<path class="st1" d="M76.1,47.2h2.8c4.2,0,7.7,2.2,7.7,6.7c0,4.6-3.4,6.9-7.7,6.9h-2.8V47.2z M77.8,59.3h0.6
				c3.5,0,6.5-1.3,6.5-5.3c0-4-3-5.3-6.5-5.3h-0.6V59.3z"/>
			<path class="st1" d="M97.5,60.9h-1.7V48.8h-3.2v-1.6h8.2v1.6h-3.2V60.9z"/>
			<path class="st1" d="M102.3,47.2h7.3v1.6H104v3.8h5.5v1.6H104v5.2h5.6v1.6h-7.3V47.2z"/>
			<path class="st1" d="M121.8,49.8c-1-0.9-2.3-1.3-3.6-1.3c-3.1,0-5.4,2.5-5.4,5.6c0,3,2.3,5.5,5.4,5.5c1.3,0,2.6-0.5,3.6-1.4v2
				c-1,0.6-2.4,1-3.6,1c-3.9,0-7.1-3.1-7.1-7c0-4,3.2-7.2,7.3-7.2c1.2,0,2.4,0.3,3.4,0.9V49.8z"/>
			<path class="st1" d="M132.1,52.7v-5.5h1.7v13.6h-1.7v-6.5h-6.5v6.5h-1.7V47.2h1.7v5.5H132.1z"/>
			<path class="st1" d="M136.2,46.6l10.2,10.7V47.2h1.7v14.2l-10.2-10.7v10.2h-1.7V46.6z"/>
			<path class="st1" d="M164.1,54.1c0,4.1-3.2,7.1-7.1,7.1c-3.9,0-7.1-3.1-7.1-7.1c0-3.9,3.2-7.1,7.1-7.1
				C160.9,46.9,164.1,50.1,164.1,54.1z M162.4,54.1c0-3-2.2-5.5-5.4-5.5c-3.2,0-5.4,2.5-5.4,5.5c0,3.1,2.5,5.5,5.4,5.5
				C159.9,59.6,162.4,57.2,162.4,54.1z"/>
			<path class="st1" d="M167.6,59.3h4.1v1.6h-5.8V47.2h1.7V59.3z"/>
			<path class="st1" d="M186.4,54.1c0,4.1-3.2,7.1-7.1,7.1c-3.9,0-7.1-3.1-7.1-7.1c0-3.9,3.2-7.1,7.1-7.1
				C183.2,46.9,186.4,50.1,186.4,54.1z M184.7,54.1c0-3-2.2-5.5-5.4-5.5c-3.2,0-5.4,2.5-5.4,5.5c0,3.1,2.5,5.5,5.4,5.5
				C182.2,59.6,184.7,57.2,184.7,54.1z"/>
			<path class="st1" d="M200.7,54v0.5c0,3.7-2.6,6.6-6.5,6.6c-3.8,0-6.9-3.3-6.9-7.1c0-3.9,3.1-7.1,7.1-7.1c2.1,0,4.2,1,5.6,2.6
				l-1.2,1.1c-1-1.3-2.6-2.2-4.3-2.2c-3.1,0-5.4,2.5-5.4,5.5c0,2.9,2.4,5.6,5.3,5.6c2.1,0,4.4-1.8,4.5-4.1h-3.5V54H200.7z"/>
			<path class="st1" d="M201.1,47.2h2l3.3,5.8l3.3-5.8h2l-4.4,7.7v5.9h-1.7v-5.9L201.1,47.2z"/>
		</g>
		<g>
			<g>
				<g>
					<path class="st1" d="M237,54v0.5c0,3.8-2.6,6.6-6.5,6.6c-3.8,0-6.9-3.3-6.9-7.1c0-3.9,3.2-7.2,7.1-7.2c2.1,0,4.2,1,5.6,2.6
						l-1.2,1.1c-1-1.3-2.6-2.2-4.3-2.2c-3.1,0-5.5,2.5-5.5,5.6c0,2.9,2.4,5.6,5.3,5.6c2.1,0,4.4-1.8,4.5-4.1h-3.5V54H237z"/>
					<path class="st1" d="M240.3,47.2v8.1c0,2.2,0.7,4.3,3.3,4.3c2.6,0,3.3-2.1,3.3-4.3v-8.1h1.7v8.7c0,3-1.9,5.3-5,5.3
						c-3.1,0-5-2.3-5-5.3v-8.7H240.3z"/>
					<path class="st1" d="M253.1,57.4l-1.6,3.4h-1.8l6.5-14.3l6.5,14.3h-1.8l-1.6-3.4H253.1z M256.2,50.3l-2.4,5.5h4.9L256.2,50.3z"
						/>
					<path class="st1" d="M263.9,46.5l10.3,10.8V47.2h1.7v14.2l-10.3-10.8v10.2h-1.7V46.5z"/>
					<path class="st1" d="M291,54v0.5c0,3.8-2.6,6.6-6.5,6.6c-3.8,0-6.9-3.3-6.9-7.1c0-3.9,3.2-7.2,7.1-7.2c2.1,0,4.2,1,5.6,2.6
						l-1.2,1.1c-1-1.3-2.6-2.2-4.3-2.2c-3.1,0-5.5,2.5-5.5,5.6c0,2.9,2.4,5.6,5.3,5.6c2.1,0,4.4-1.8,4.5-4.1h-3.5V54H291z"/>
					<path class="st1" d="M301.4,59.3v1.6h-9.7l6.9-12.1h-6v-1.6h8.7l-6.9,12.1H301.4z"/>
					<path class="st1" d="M311.1,52.7v-5.5h1.7v13.7h-1.7v-6.6h-6.5v6.6h-1.7V47.2h1.7v5.5H311.1z"/>
					<path class="st1" d="M328.8,54c0,4.1-3.2,7.1-7.2,7.1c-4,0-7.2-3.1-7.2-7.1c0-3.9,3.2-7.1,7.2-7.1
						C325.5,46.9,328.8,50.1,328.8,54z M327.1,54c0-3-2.3-5.5-5.5-5.5c-3.2,0-5.5,2.5-5.5,5.5c0,3.1,2.5,5.5,5.5,5.5
						C324.6,59.6,327.1,57.1,327.1,54z"/>
					<path class="st1" d="M332.1,47.2v8.1c0,2.2,0.7,4.3,3.3,4.3c2.6,0,3.3-2.1,3.3-4.3v-8.1h1.7v8.7c0,3-1.9,5.3-5,5.3
						s-5-2.3-5-5.3v-8.7H332.1z"/>
				</g>
			</g>
			<path class="st1" d="M221.4,45.9c-0.7,1.4-1.3,2.5-1.6,3.4c-0.5,1.5-0.8,3-0.8,4.7c0,2.6,0.8,5.3,2.3,8.1h-1.2
				c-0.8-1.1-1.5-2.4-2.1-3.9c-0.5-1.4-0.8-2.9-0.8-4.3c0-1.9,0.5-3.8,1.5-5.7c0.5-1,1-1.8,1.5-2.4H221.4z"/>
			<path class="st1" d="M347.6,54c0,1.9-0.5,3.8-1.5,5.7c-0.5,0.9-1,1.7-1.5,2.4h-1.2c0.7-1.4,1.3-2.5,1.6-3.4
				c0.5-1.5,0.8-3,0.8-4.7c0-2.6-0.8-5.3-2.3-8.1h1.2c0.8,1.1,1.5,2.4,2.1,3.9C347.4,51.3,347.6,52.7,347.6,54z"/>
		</g>
	</g>
	<g>
		<g>
			<path class="st1" d="M52.4,39.2h-1.7V27.1h-3.2v-1.6h8.2v1.6h-3.2V39.2z"/>
			<path class="st1" d="M65.2,31v-5.5h1.7v13.6h-1.7v-6.5h-6.5v6.5h-1.7V25.5h1.7V31H65.2z"/>
			<path class="st1" d="M69.6,25.5h7.3v1.6h-5.6v3.8h5.5v1.6h-5.5v5.2h5.6v1.6h-7.3V25.5z"/>
			<path class="st1" d="M92.6,31v-5.5h1.7v13.6h-1.7v-6.5h-6.5v6.5h-1.7V25.5h1.7V31H92.6z"/>
			<path class="st1" d="M110.3,32.4c0,4.1-3.2,7.1-7.1,7.1c-3.9,0-7.1-3.1-7.1-7.1c0-3.9,3.2-7.1,7.1-7.1
				C107.1,25.2,110.3,28.4,110.3,32.4z M108.6,32.4c0-3-2.2-5.5-5.4-5.5c-3.2,0-5.4,2.5-5.4,5.5c0,3.1,2.5,5.5,5.4,5.5
				C106.1,37.9,108.6,35.5,108.6,32.4z"/>
			<path class="st1" d="M112,24.9l10.2,10.7V25.5h1.7v14.2L113.7,29v10.2H112V24.9z"/>
			<path class="st1" d="M138.9,32.3v0.5c0,3.7-2.6,6.6-6.5,6.6c-3.8,0-6.9-3.3-6.9-7.1c0-3.9,3.1-7.1,7.1-7.1c2.1,0,4.2,1,5.6,2.6
				L137,29c-1-1.3-2.6-2.2-4.3-2.2c-3.1,0-5.4,2.5-5.4,5.5c0,2.9,2.4,5.6,5.3,5.6c2.1,0,4.4-1.8,4.5-4.1h-3.5v-1.6H138.9z"/>
			<path class="st1" d="M153.7,25.5h2.2l-6.1,6.1l6.2,7.5h-2.3l-5.1-6.3l-0.7,0.7v5.7h-1.7V25.5h1.7v5.9L153.7,25.5z"/>
			<path class="st1" d="M170.6,32.4c0,4.1-3.2,7.1-7.1,7.1c-3.9,0-7.1-3.1-7.1-7.1c0-3.9,3.2-7.1,7.1-7.1
				C167.3,25.2,170.6,28.4,170.6,32.4z M168.9,32.4c0-3-2.2-5.5-5.4-5.5c-3.2,0-5.4,2.5-5.4,5.5c0,3.1,2.5,5.5,5.4,5.5
				C166.4,37.9,168.9,35.5,168.9,32.4z"/>
			<path class="st1" d="M172.2,24.9l10.2,10.7V25.5h1.7v14.2L173.9,29v10.2h-1.7V24.9z"/>
			<path class="st1" d="M199.2,32.3v0.5c0,3.7-2.6,6.6-6.5,6.6c-3.8,0-6.9-3.3-6.9-7.1c0-3.9,3.1-7.1,7.1-7.1c2.1,0,4.2,1,5.6,2.6
				l-1.2,1.1c-1-1.3-2.6-2.2-4.3-2.2c-3.1,0-5.4,2.5-5.4,5.5c0,2.9,2.4,5.6,5.3,5.6c2.1,0,4.4-1.8,4.5-4.1h-3.5v-1.6H199.2z"/>
			<path class="st1" d="M207.9,25.5v8c0,2.2,0.7,4.3,3.3,4.3c2.6,0,3.3-2.1,3.3-4.3v-8h1.7v8.6c0,3-1.9,5.3-5,5.3
				c-3.1,0-5-2.3-5-5.3v-8.6H207.9z"/>
			<path class="st1" d="M218.6,24.9l10.2,10.7V25.5h1.7v14.2L220.3,29v10.2h-1.7V24.9z"/>
			<path class="st1" d="M234.8,39.2h-1.7V25.5h1.7V39.2z"/>
			<path class="st1" d="M242,35.6l4.1-10.1h1.9L242,39.9l-5.9-14.4h1.9L242,35.6z"/>
			<path class="st1" d="M249.3,25.5h7.3v1.6H251v3.8h5.5v1.6H251v5.2h5.6v1.6h-7.3V25.5z"/>
			<path class="st1" d="M267.3,39.2h-2.1l-4-5.8h-0.7v5.8h-1.7V25.5h2.1c1.2,0,2.5,0,3.6,0.6c1.1,0.7,1.8,2,1.8,3.3
				c0,2-1.3,3.6-3.3,3.8L267.3,39.2z M260.6,32h0.5c1.7,0,3.6-0.3,3.6-2.5c0-2.1-2-2.4-3.7-2.4h-0.5V32z"/>
			<path class="st1" d="M274.9,28.1c-0.5-0.9-1.2-1.3-2.2-1.3c-1.1,0-2.3,0.7-2.3,1.9c0,1.1,1,1.6,1.9,2l1,0.4
				c1.9,0.8,3.4,1.8,3.4,4.1c0,2.5-1.9,4.2-4.4,4.2c-2.2,0-3.9-1.6-4.2-3.8l1.7-0.4c0,1.5,1.2,2.6,2.6,2.6c1.5,0,2.5-1.2,2.5-2.7
				c0-1.5-1.2-2.1-2.4-2.6l-0.9-0.4c-1.6-0.7-3-1.6-3-3.5c0-2.2,2-3.5,4-3.5c1.5,0,2.8,0.7,3.5,2.1L274.9,28.1z"/>
			<path class="st1" d="M280.4,39.2h-1.7V25.5h1.7V39.2z"/>
			<path class="st1" d="M286.8,39.2h-1.7V27.1h-3.2v-1.6h8.2v1.6h-3.2V39.2z"/>
			<path class="st1" d="M290.2,25.5h2l3.3,5.8l3.3-5.8h2l-4.4,7.7v5.9h-1.7v-5.9L290.2,25.5z"/>
			<path class="st1" d="M320.8,32.4c0,4.1-3.2,7.1-7.1,7.1c-3.9,0-7.1-3.1-7.1-7.1c0-3.9,3.2-7.1,7.1-7.1
				C317.6,25.2,320.8,28.4,320.8,32.4z M319.1,32.4c0-3-2.2-5.5-5.4-5.5c-3.2,0-5.4,2.5-5.4,5.5c0,3.1,2.5,5.5,5.4,5.5
				C316.7,37.9,319.1,35.5,319.1,32.4z"/>
			<path class="st1" d="M324.4,27.1v3.8h4.7v1.6h-4.7v6.7h-1.7V25.5h6.6v1.6H324.4z"/>
		</g>
		<g>
			<path class="st1" d="M343.1,28.1c-0.5-0.9-1.2-1.3-2.2-1.3c-1.1,0-2.3,0.7-2.3,1.9c0,1.1,1,1.6,1.9,2l1,0.4
				c1.9,0.8,3.4,1.8,3.4,4.1c0,2.5-1.9,4.2-4.4,4.2c-2.2,0-3.9-1.6-4.2-3.8l1.7-0.4c0,1.5,1.2,2.6,2.6,2.6c1.5,0,2.5-1.2,2.5-2.7
				c0-1.5-1.2-2.1-2.4-2.6l-0.9-0.4c-1.6-0.7-3-1.6-3-3.5c0-2.2,2-3.5,4-3.5c1.5,0,2.8,0.7,3.5,2.1L343.1,28.1z"/>
			<path class="st1" d="M356.9,28.2c-1-0.9-2.3-1.3-3.6-1.3c-3.1,0-5.4,2.5-5.4,5.6c0,3,2.3,5.5,5.4,5.5c1.3,0,2.6-0.5,3.6-1.4v2
				c-1,0.6-2.4,1-3.6,1c-3.9,0-7.1-3.1-7.1-7c0-4,3.2-7.2,7.3-7.2c1.2,0,2.4,0.3,3.4,0.9V28.2z"/>
			<path class="st1" d="M360.7,39.2H359V25.5h1.7V39.2z"/>
			<path class="st1" d="M363.4,25.5h7.3v1.6h-5.6v3.8h5.5v1.6h-5.5v5.2h5.6v1.6h-7.3V25.5z"/>
			<path class="st1" d="M372.9,24.9l10.2,10.7V25.5h1.7v14.2L374.6,29v10.2h-1.7V24.9z"/>
			<path class="st1" d="M397.3,28.2c-1-0.9-2.3-1.3-3.6-1.3c-3.1,0-5.4,2.5-5.4,5.6c0,3,2.3,5.5,5.4,5.5c1.3,0,2.6-0.5,3.6-1.4v2
				c-1,0.6-2.4,1-3.6,1c-3.9,0-7.1-3.1-7.1-7c0-4,3.2-7.2,7.3-7.2c1.2,0,2.4,0.3,3.4,0.9V28.2z"/>
			<path class="st1" d="M399.6,25.5h7.3v1.6h-5.6v3.8h5.5v1.6h-5.5v5.2h5.6v1.6h-7.3V25.5z"/>
		</g>
	</g>
	<g>
		<g>
			<path class="st1" d="M62.5,9.8v8.1h-1.7v-0.9h-9.2v0.9h-1.7v-8c-0.3,0.1-0.8,0.3-1.6,0.6l-0.9-1.7c2.3-0.6,4.2-1.5,5.9-2.9h-5.8
				V4.3h7.7V2.8c-2.8,0.1-4.8,0.1-6,0.1l-0.6-1.7c0.7,0,1.6,0,2.6,0c5,0,8.7-0.3,11.3-0.9l0.8,1.5c-1.7,0.3-3.8,0.6-6.3,0.8v1.6h7.9
				v1.6h-6c1.4,1.4,3.5,2.3,6.2,2.9l-0.8,1.7c-0.2-0.1-0.5-0.2-0.8-0.3C63.1,10.1,62.8,9.9,62.5,9.8z M50.9,9.4h4.3V5.9
				C54.1,7.5,52.7,8.6,50.9,9.4z M60.8,10.9h-9.2v1.4h9.2V10.9z M51.6,15.5h9.2v-1.6h-9.2V15.5z M56.9,5.9v3.5h4.6
				C59.7,8.6,58.1,7.5,56.9,5.9z"/>
			<path class="st1" d="M75,12.1c-0.5,2-1.3,3.9-2.4,5.6l-1.5-1.5c1.1-1.6,1.8-3.2,2.2-5L75,12.1z M73.9,9.1c-1-0.9-1.9-1.5-2.6-2
				l1.1-1.4c0.9,0.5,1.8,1.1,2.8,1.8L73.9,9.1z M75.7,2.4h2.5V0.5h1.7v1.9h3.4V0.5H85v1.9h3.1v1.5H85v1.9h3.4v1.6h-3.6
				c0.5,1,1.8,2,3.8,3l-0.8,1.7c-1.1-0.7-2.1-1.4-2.8-2v3.8h-6v1.2c0,0.4,0.2,0.7,0.7,0.7h5.6c0.5,0,0.8-0.2,0.9-0.6
				c0.1-0.4,0.2-1.1,0.3-2.1l1.8,0.7c-0.2,1.7-0.5,2.8-0.8,3.1c-0.3,0.3-1,0.5-1.9,0.5h-6.1c-0.8,0-1.4-0.1-1.7-0.4
				c-0.3-0.3-0.5-0.9-0.5-1.7V11c-0.3,0.3-0.9,0.7-1.7,1.2l-1.1-1.6c2.1-0.9,3.4-2,3.9-3.2h-3V5.8h2.9V4h-2.5V3l-1.1,1.4
				c-1-0.9-2-1.7-2.8-2.2L73,0.8c1.1,0.7,2,1.3,2.7,1.9V2.4z M78.9,10.6v1.8h4.3v-1.8H78.9z M80.3,7.4c-0.3,0.6-0.6,1.2-1.1,1.7H84
				c-0.4-0.5-0.8-1-1.1-1.7H80.3z M79.9,4v1.8h3.4V4H79.9z"/>
			<path class="st1" d="M98.6,3c-0.7,0.1-1.6,0.2-2.9,0.3l-0.4-1.6c2.8-0.1,5.2-0.6,7.2-1.3l0.6,1.5c-0.9,0.3-1.8,0.6-2.8,0.8v2.6
				h2.8v1.6h-2.8v0.2c1.4,1.3,2.5,2.3,3.2,3.1l-1,1.6c-0.4-0.5-0.7-1-1.1-1.4c-0.3-0.4-0.7-0.8-1-1.3v8.7l-1.7,0.1v-7.7
				c-0.5,1.2-1.3,2.6-2.5,4.2l-1-1.7c1.6-1.8,2.8-3.7,3.5-5.8h-3.4V5.3h3.5V3z M102.9,13.7V12l6.3-0.9V0.3h1.7v10.6l1.7-0.3v1.7
				l-1.7,0.3v5.4h-1.7v-5.1L102.9,13.7z M107,9.9c-1.3-1.1-2.4-1.9-3.4-2.5l1.1-1.3c0.9,0.5,2.1,1.3,3.5,2.3L107,9.9z M107.3,5.4
				c-1.4-1.1-2.5-1.9-3.4-2.5l1.1-1.2c0.8,0.5,2,1.2,3.4,2.3L107.3,5.4z"/>
			<path class="st1" d="M125.8,5.9h-2.2v3.3c1-0.3,1.7-0.6,2.2-0.8v1.8c-0.4,0.2-1.1,0.5-2.2,0.9v4.6c0,0.9-0.1,1.5-0.4,1.8
				c-0.3,0.3-0.9,0.4-1.8,0.4h-1.5l-0.4-1.9l1.6,0.1c0.4,0,0.6-0.2,0.6-0.6v-3.8c-1.1,0.3-1.9,0.5-2.5,0.6l-0.5-2
				c1.1-0.1,2.1-0.3,3-0.6V5.9H119V4.2h2.8V0.3h1.8v3.8h2.2V3h4V0.3h1.9V3h4.4v1.7h-4.4v2.5h3.8v1.6c-0.2,0.7-0.6,1.6-1.2,2.6
				c-0.7,1.1-1.3,1.9-2,2.6c1.2,1,2.7,1.8,4.2,2.2l-1,1.8c-1.6-0.5-3.2-1.5-4.6-2.8c-2,1.5-3.9,2.5-5.7,2.8l-1-1.7
				c1.8-0.4,3.6-1.2,5.4-2.4c-1-1-1.9-2.3-2.8-4l1.6-0.6c0.9,1.5,1.7,2.7,2.6,3.6c1.3-1,2.2-2.3,2.7-3.9h-7.4V7.2h3.7V4.7h-4
				L125.8,5.9z"/>
			<path class="st1" d="M153.7,7c0.3,1.5,1,3.1,2,4.8c1.1,1.7,2.5,3.1,4.4,4.3l-1.4,1.7c-3.4-2.2-5.7-5.8-6.9-10.9h-0.3
				c-0.8,4.5-3.4,8.1-7.5,10.9l-1.4-1.8c1.8-1,3.3-2.3,4.6-4c1.3-1.6,2-3.4,2.3-5.1h-6.5V5h6.8c0.2-1.1,0.2-2.7,0.2-4.7h2
				c0,2.1-0.1,3.7-0.2,4.7h7.9v2L153.7,7z"/>
		</g>
		<path class="st1" d="M197,0.2c-0.8,1.6-1.4,2.9-1.8,3.8c-0.6,1.7-0.8,3.4-0.8,5.2c0,2.9,0.9,5.9,2.6,9h-1.4
			c-0.9-1.3-1.7-2.7-2.4-4.3c-0.6-1.6-0.9-3.2-0.9-4.8c0-2.1,0.5-4.3,1.6-6.3c0.6-1.1,1.1-2,1.6-2.7H197z"/>
		<path class="st1" d="M228,4.8c-0.1,1.9-0.5,3.8-1.1,5.8l-1.8-0.7c0.7-1.6,1.1-3.4,1.2-5.5L228,4.8z M226.9,17.6l-1.6-1.5
			c1.1-0.8,2-1.9,2.7-3.1c0.6-1.3,0.9-3.2,0.9-5.9V0.4h1.9v8C230.8,12.4,229.5,15.4,226.9,17.6z M232.4,10.5
			c-0.4-2.4-0.9-4.2-1.5-5.4l1.7-0.6c0.7,1.8,1.2,3.7,1.6,5.6L232.4,10.5z M234.5,0.6h1.8v16.7h-1.8V0.6z M238.3,10.4
			c-0.2-1.7-0.7-3.5-1.6-5.4l1.6-0.6c0.8,2,1.5,3.8,1.9,5.5L238.3,10.4z M240.5,0.2h1.9v17.7h-1.9V0.2z"/>
		<path class="st1" d="M252.1,9.2c0,2.1-0.5,4.2-1.6,6.3c-0.5,1-1.1,1.9-1.6,2.7h-1.4c0.8-1.6,1.4-2.8,1.8-3.8
			c0.6-1.7,0.8-3.4,0.8-5.2c0-2.9-0.9-5.9-2.6-9h1.4c0.9,1.2,1.7,2.7,2.3,4.3C251.8,6.1,252.1,7.7,252.1,9.2z"/>
		<path class="st1" d="M183.2,4.1v4.6h-1.8V5.8h-12.8v2.9h-1.8V4.1h3.4c-0.6-1-1.2-1.9-1.9-2.7l1.6-0.8c0.7,0.9,1.3,1.9,1.9,2.9
			l-1.2,0.6h7.1c0.8-1.2,1.5-2.5,2-3.8l1.9,0.7c-0.6,1.2-1.2,2.3-1.9,3.1H183.2z M169.9,7h10.3v1.6c-1.2,0.8-2.5,1.5-4,2.2v0.7h7.1
			v1.7h-7.1v2.9c0,1.1-0.6,1.7-1.8,1.7H172l-0.4-1.6c0.7,0,1.4,0,2.2,0c0.4,0,0.6-0.2,0.6-0.7v-2.3h-7.5v-1.7h7.5V10
			c1.3-0.6,2.4-1.1,3.2-1.5h-7.6V7z M174.5,0.2c0.6,0.9,1.2,1.9,1.8,3.1L174.7,4c-0.6-1.2-1.2-2.2-1.8-3.1L174.5,0.2z"/>
		<path class="st1" d="M210.9,0c0.3,0.6,0.6,1.4,0.9,2.1h6.9V4h-14.1V8c-0.1,4.2-0.7,7.6-1.9,10.2l-1.5-1.4c1-2.1,1.5-5.1,1.6-8.8
			V2.2h7c-0.3-0.7-0.6-1.3-1-1.8L210.9,0z"/>
	</g>
</g>
</svg>
